PathFileType	4	(X/Y/Z)	C:\Users\86182\Documents\cortex\Trimmed_M4_H16.trc
DataRate	CameraRate	NumFrames	NumMarkers	Units	OrigDataRate	OrigDataStartFrame	OrigNumFrames
100.00	100.00	       169	2	mm	100.00	181	       901
Frame#	Time	gripper			box			
		X1	Y1	Z1	X2	Y2	Z2	

181	1.800	278.89307	149.89003	217.42917	280.30154	147.01466	82.59964	
182	1.810	278.74170	149.88974	217.88551	280.25912	147.01604	83.00253	
183	1.820	278.59964	149.88663	218.33945	280.22275	147.01331	83.40891	
184	1.830	278.52359	149.87138	218.77206	280.19647	147.00662	83.82030	
185	1.840	278.52908	149.84291	219.17944	280.18048	146.99811	84.23717	
186	1.850	278.58395	149.81010	219.57469	280.17310	146.99074	84.65981	
187	1.860	278.65140	149.78249	219.97246	280.17325	146.98662	85.08892	
188	1.870	278.71902	149.76315	220.37901	280.18152	146.98676	85.52554	
189	1.880	278.78198	149.75227	220.79820	280.19797	146.99150	85.96992	
190	1.890	278.82028	149.75233	221.23718	280.21909	147.00056	86.41982	
191	1.900	278.81058	149.76642	221.70038	280.23901	147.01343	86.87077	
192	1.910	278.74487	149.79550	222.18483	280.25278	147.02980	87.31852	
193	1.920	278.61972	149.84036	222.68781	280.25717	147.04868	87.76105	
194	1.930	278.42444	149.90205	223.21161	280.25000	147.06689	88.19828	
195	1.940	278.16431	149.97662	223.75327	280.23044	147.08014	88.62907	
196	1.950	277.88394	150.05222	224.29489	280.19928	147.08574	89.05072	
197	1.960	277.64874	150.11470	224.81129	280.15771	147.08342	89.46310	
198	1.970	277.50446	150.15562	225.28622	280.10715	147.07434	89.87128	
199	1.980	277.45685	150.17461	225.72018	280.05029	147.06052	90.28271	
200	1.990	277.48163	150.17638	226.12561	279.99246	147.04463	90.70229	
201	2.000	277.55325	150.16611	226.51494	279.93939	147.02934	91.13020	
202	2.010	277.66049	150.14757	226.89465	279.89294	147.01665	91.56441	
203	2.020	277.78476	150.12680	227.27344	279.85144	147.00792	92.00424	
204	2.030	277.88004	150.11461	227.66948	279.81372	147.00409	92.45052	
205	2.040	277.89905	150.12105	228.10011	279.78162	147.00565	92.90285	
206	2.050	277.83585	150.14738	228.56567	279.75784	147.01302	93.35782	
207	2.060	277.72272	150.18703	229.05115	279.74323	147.02611	93.80966	
208	2.070	277.58600	150.23434	229.54335	279.73752	147.04311	94.25231	
209	2.080	277.42502	150.28880	230.03970	279.74390	147.06073	94.68050	
210	2.090	277.23642	150.34949	230.53992	279.77142	147.07646	95.08853	
211	2.100	277.03784	150.41023	231.03658	279.83252	147.08835	95.47003	
212	2.110	276.85669	150.46346	231.51907	279.93655	147.09279	95.82025	
213	2.120	276.71100	150.50523	231.98126	280.08255	147.08542	96.13961	
214	2.130	276.60635	150.53494	232.42270	280.25250	147.06604	96.43854	
215	2.140	276.53995	150.55356	232.84619	280.41577	147.04088	96.73700	
216	2.150	276.50497	150.56313	233.25612	280.55325	147.01701	97.05019	
217	2.160	276.49460	150.56624	233.65790	280.66885	146.99699	97.37943	
218	2.170	276.50327	150.56552	234.05746	280.75693	146.98270	97.72925	
219	2.180	276.52518	150.56355	234.46014	280.77335	146.98125	98.12422	
220	2.190	276.55356	150.56270	234.87019	280.66901	147.00125	98.59285	
221	2.200	276.58212	150.56485	235.29117	280.44955	147.04346	99.13599	
222	2.210	276.60785	150.57155	235.72520	280.17783	147.09927	99.72330	
223	2.220	276.63055	150.58372	236.17186	279.92151	147.15837	100.31874	
224	2.230	276.64990	150.60138	236.62860	279.71884	147.21393	100.89832	
225	2.240	276.66483	150.62376	237.09201	279.58136	147.26292	101.44936	
226	2.250	276.67508	150.65001	237.55812	279.50558	147.30441	101.96688	
227	2.260	276.68143	150.67912	238.02284	279.48193	147.33829	102.45195	
228	2.270	276.68378	150.70950	238.48285	279.50000	147.36530	102.90810	
229	2.280	276.68112	150.73885	238.93552	279.55072	147.38708	103.33644	
230	2.290	276.67288	150.76492	239.37903	279.62692	147.40523	103.73527	
231	2.300	276.65976	150.78665	239.81326	279.72095	147.42003	104.10631	
232	2.310	276.64276	150.80434	240.23918	279.81876	147.43134	104.46107	
233	2.320	276.62296	150.81882	240.65752	279.89130	147.44127	104.82247	
234	2.330	276.60217	150.83070	241.06915	279.89801	147.45569	105.21770	
235	2.340	276.58261	150.84065	241.47603	279.81769	147.47919	105.65954	
236	2.350	276.56534	150.84953	241.88120	279.67212	147.50983	106.13573	
237	2.360	276.55057	150.85793	242.28793	279.50549	147.54153	106.62313	
238	2.370	276.53909	150.86513	242.69882	279.35504	147.56883	107.10520	
239	2.380	276.53201	150.86894	243.11560	279.24466	147.58865	107.57460	
240	2.390	276.52924	150.86757	243.53918	279.18762	147.60045	108.02869	
241	2.400	276.53027	150.86157	243.97006	279.18793	147.60512	108.46481	
242	2.410	276.53528	150.85332	244.40833	279.24503	147.60280	108.87773	
243	2.420	276.54391	150.84459	244.85226	279.36066	147.59149	109.26122	
244	2.430	276.55435	150.83530	245.29817	279.54010	147.56815	109.61131	
245	2.440	276.56387	150.82414	245.74295	279.78506	147.53146	109.92779	
246	2.450	276.56827	150.81052	246.18582	280.08270	147.48380	110.21572	
247	2.460	276.56210	150.79478	246.62659	280.39432	147.43187	110.49101	
248	2.470	276.54230	150.77710	247.06421	280.65695	147.38608	110.78313	
249	2.480	276.51056	150.75699	247.49783	280.81836	147.35521	111.11876	
250	2.490	276.47174	150.73445	247.92754	280.88174	147.33948	111.49834	
251	2.500	276.42960	150.71121	248.35403	280.89291	147.33221	111.90139	
252	2.510	276.38571	150.69051	248.77817	280.87546	147.33011	112.31726	
253	2.520	276.34128	150.67531	249.19989	280.79776	147.33839	112.76049	
254	2.530	276.29816	150.66605	249.61745	280.61438	147.36430	113.25185	
255	2.540	276.25864	150.66054	250.02971	280.33096	147.40683	113.78970	
256	2.550	276.22598	150.65617	250.43912	280.00903	147.45656	114.34865	
257	2.560	276.20361	150.65248	250.85052	279.71426	147.50401	114.90192	
258	2.570	276.19162	150.65082	251.26743	279.48242	147.54422	115.43379	
259	2.580	276.18652	150.65207	251.68990	279.32278	147.57498	115.93697	
260	2.590	276.18604	150.65533	252.11603	279.22964	147.59575	116.41026	
261	2.600	276.19150	150.65927	252.54456	279.18912	147.60832	116.85929	
262	2.610	276.20419	150.66344	252.97598	279.18387	147.61592	117.29505	
263	2.620	276.22217	150.66794	253.41115	279.19803	147.62112	117.72859	
264	2.630	276.24109	150.67276	253.84915	279.22012	147.62497	118.16502	
265	2.640	276.25720	150.67793	254.28711	279.24274	147.62788	118.60268	
266	2.650	276.26978	150.68375	254.72256	279.26129	147.63084	119.03837	
267	2.660	276.28058	150.69057	255.15564	279.27402	147.63548	119.47235	
268	2.670	276.29108	150.69887	255.58786	279.28183	147.64357	119.90704	
269	2.680	276.30060	150.70930	256.01920	279.28561	147.65578	120.34213	
270	2.690	276.30685	150.72266	256.44785	279.28436	147.67059	120.77391	
271	2.700	276.30753	150.73862	256.87268	279.27643	147.68541	121.19950	
272	2.710	276.30209	150.75534	257.29419	279.26236	147.69901	121.61946	
273	2.720	276.29294	150.76997	257.71313	279.24524	147.71135	122.03616	
274	2.730	276.28409	150.78035	258.12933	279.22864	147.72136	122.45150	
275	2.740	276.27798	150.78635	258.54218	279.21405	147.72659	122.86613	
276	2.750	276.27463	150.79019	258.95224	279.20013	147.72568	123.27975	
277	2.760	276.27414	150.79460	259.36212	279.18460	147.71994	123.69228	
278	2.770	276.27777	150.80032	259.77570	279.16675	147.71201	124.10554	
279	2.780	276.28653	150.80588	260.19559	279.14816	147.70361	124.52344	
280	2.790	276.29950	150.80984	260.62186	279.13171	147.69530	124.94950	
281	2.800	276.31433	150.81250	261.05350	279.11893	147.68742	125.38450	
282	2.810	276.32867	150.81520	261.48987	279.10861	147.68048	125.82626	
283	2.820	276.34158	150.81856	261.93051	279.09906	147.67493	126.27151	
284	2.830	276.35352	150.82193	262.37463	279.08997	147.67123	126.71795	
285	2.840	276.36520	150.82466	262.82098	279.08133	147.66937	127.16502	
286	2.850	276.37607	150.82764	263.26715	279.07214	147.66878	127.61212	
287	2.860	276.38467	150.83281	263.71082	279.06036	147.66963	128.05644	
288	2.870	276.39041	150.84100	264.15036	279.04388	147.67339	128.49429	
289	2.880	276.39435	150.85114	264.58423	279.02103	147.68172	128.92493	
290	2.890	276.39761	150.86151	265.01086	278.99051	147.69463	129.35146	
291	2.900	276.40002	150.87119	265.43045	278.95172	147.70946	129.77728	
292	2.910	276.39990	150.88042	265.84576	278.90482	147.72174	130.20291	
293	2.920	276.39542	150.89003	266.25940	278.85132	147.72816	130.62592	
294	2.930	276.38666	150.90005	266.67212	278.79446	147.72861	131.04454	
295	2.940	276.37619	150.90939	267.08353	278.73843	147.72507	131.46033	
296	2.950	276.36700	150.91693	267.49310	278.68845	147.71919	131.87643	
297	2.960	276.36127	150.92261	267.90100	278.65033	147.71188	132.29439	
298	2.970	276.36075	150.92694	268.30893	278.62762	147.70438	132.71368	
299	2.980	276.36615	150.92963	268.71973	278.61826	147.69818	133.13379	
300	2.990	276.37616	150.92947	269.13568	278.61636	147.69424	133.55565	
301	3.000	276.38879	150.92587	269.55737	278.61859	147.69286	133.98099	
302	3.010	276.40204	150.91924	269.98468	278.62726	147.69388	134.41075	
303	3.020	276.41318	150.91052	270.41818	278.64597	147.69669	134.84451	
304	3.030	276.41901	150.90094	270.85751	278.67297	147.70009	135.28116	
305	3.040	276.41730	150.89212	271.30182	278.70117	147.70343	135.71960	
306	3.050	276.40665	150.88576	271.75061	278.72403	147.70746	136.15912	
307	3.060	276.38617	150.88297	272.20294	278.73972	147.71338	136.59930	
308	3.070	276.35626	150.88434	272.65692	278.74893	147.72163	137.03949	
309	3.080	276.31863	150.89029	273.11115	278.75150	147.73230	137.47873	
310	3.090	276.27524	150.90173	273.56427	278.74615	147.74564	137.91595	
311	3.100	276.22763	150.91954	274.01416	278.73227	147.76207	138.35049	
312	3.110	276.17798	150.94322	274.45847	278.71008	147.78198	138.78229	
313	3.120	276.12872	150.97037	274.89600	278.68079	147.80557	139.21164	
314	3.130	276.08133	150.99699	275.32605	278.64612	147.83194	139.63898	
315	3.140	276.03574	151.01897	275.74908	278.60794	147.85818	140.06366	
316	3.150	275.99173	151.03371	276.16766	278.56903	147.88054	140.48346	
317	3.160	275.95041	151.04099	276.58466	278.53381	147.89716	140.89731	
318	3.170	275.91290	151.04173	277.00137	278.50635	147.90897	141.30814	
319	3.180	275.88034	151.03760	277.41861	278.48816	147.91817	141.72079	
320	3.190	275.85571	151.03160	277.83740	278.47888	147.92625	142.13727	
321	3.200	275.84250	151.02702	278.25830	278.47833	147.93323	142.55589	
322	3.210	275.84116	151.02467	278.68060	278.48691	147.93825	142.97546	
323	3.220	275.84946	151.02306	279.10352	278.50446	147.94078	143.39767	
324	3.230	275.86572	151.02092	279.52686	278.52969	147.94089	143.82407	
325	3.240	275.88837	151.01788	279.95117	278.56076	147.93910	144.25311	
326	3.250	275.91440	151.01373	280.37686	278.59579	147.93602	144.68173	
327	3.260	275.94022	151.00858	280.80365	278.63239	147.93245	145.10803	
328	3.270	275.96313	151.00340	281.23071	278.66635	147.92955	145.53253	
329	3.280	275.98145	150.99945	281.65744	278.69275	147.92818	145.95715	
330	3.290	275.99500	150.99768	282.08398	278.70874	147.92862	146.38322	
331	3.300	276.00464	150.99887	282.51096	278.71448	147.93147	146.80978	
332	3.310	276.01105	151.00323	282.93808	278.71063	147.93767	147.23456	
333	3.320	276.01480	151.01016	283.36383	278.69644	147.94725	147.65701	
334	3.330	276.01627	151.01888	283.78705	278.67288	147.95885	148.07840	
335	3.340	276.01511	151.02933	284.20779	278.64532	147.97035	148.49855	
336	3.350	276.01080	151.04184	284.62656	278.61923	147.98045	148.91617	
337	3.360	276.00397	151.05579	285.04309	278.59412	147.99017	149.33206	
338	3.370	275.99689	151.06900	285.45657	278.56485	148.00256	149.74847	
339	3.380	275.99240	151.07921	285.86676	278.52917	148.02005	150.16550	
340	3.390	275.99200	151.08598	286.27432	278.49121	148.04190	150.58084	
341	3.400	275.99487	151.09087	286.68048	278.45724	148.06480	150.99368	
342	3.410	275.99878	151.09573	287.08539	278.43103	148.08559	151.40582	
343	3.420	276.00235	151.10120	287.48767	278.41318	148.10265	151.81781	
344	3.430	276.00638	151.10619	287.88538	278.40274	148.11525	152.22638	
345	3.440	276.01270	151.10919	288.27716	278.39847	148.12251	152.62677	
346	3.450	276.02341	151.11026	288.66174	278.39969	148.12366	153.01566	
347	3.460	276.03976	151.11131	289.03668	278.40552	148.11923	153.39166	
348	3.470	276.06061	151.11400	289.39804	278.41388	148.11172	153.75458	
349	3.480	276.08286	151.11786	289.74210	278.42307	148.10411	154.10400	
